# xmcd
#
# Track frame offsets: 
#        150
#        17072
#        21586
#        48049
#        63501
#        84460
#        100044
#        120557
#        140440
#        166412
#        179823
#        201596
#
# Disc length: 3003 seconds
#
# Revision: 0
# Processed by: cddbd v1.5.2PL0 Copyright (c) Steve Scherf et al.
# Submitted via: ExactAudioCopy v0.99pb4
#
DISCID=a70bb90c
DTITLE=Mountain - Nantucket Sleighride
DYEAR=2004
DGENRE=Heavy Metal
TTITLE0=Don't Look Around
TTITLE1=Taunta (Sammy's Tune)
TTITLE2=Nantucket Sleighride (To Owen Coffin)
TTITLE3=You Can't Get Away
TTITLE4=Tired Angels (To J.M.H.)
TTITLE5=The Animal Trainer And The Toad
TTITLE6=My Lady
TTITLE7=Travellin' In The Dark (To E.M.P.)
TTITLE8=The Great Train Robbery
TTITLE9=Roll Over Beethoven
TTITLE10=Crossroader
TTITLE11=Travellin' In The Dark (To E.M.P) (Live-Version)
EXTD=
EXTT0=
EXTT1=
EXTT2=
EXTT3=
EXTT4=
EXTT5=
EXTT6=
EXTT7=
EXTT8=
EXTT9=
EXTT10=
EXTT11=
PLAYORDER=
